<svg width="28" height="25" viewBox="0 0 28 25" fill="none" xmlns="http://www.w3.org/2000/svg">
<path d="M4.5 0.5C5.01562 0.5 5.48438 0.921875 5.57812 1.4375L5.67188 2H25.3594C26.3438 2 27.0938 2.98438 26.8125 3.92188L24.2812 12.9219C24.0938 13.5781 23.5312 14 22.8281 14H7.96875L8.39062 16.25H22.875C23.4844 16.25 24 16.7656 24 17.375C24 18.0312 23.4844 18.5 22.875 18.5H7.45312C6.9375 18.5 6.46875 18.125 6.375 17.6094L3.5625 2.75H1.125C0.46875 2.75 0 2.28125 0 1.625C0 1.01562 0.46875 0.5 1.125 0.5H4.5ZM6 22.25C6 21.0312 6.98438 20 8.25 20C9.46875 20 10.5 21.0312 10.5 22.25C10.5 23.5156 9.46875 24.5 8.25 24.5C6.98438 24.5 6 23.5156 6 22.25ZM24 22.25C24 23.5156 22.9688 24.5 21.75 24.5C20.4844 24.5 19.5 23.5156 19.5 22.25C19.5 21.0312 20.4844 20 21.75 20C22.9688 20 24 21.0312 24 22.25Z" fill="#FFFFFE"/>
</svg>
